HIERARCHY
ROOT Hips
{
	OFFSET	0.00	0.00	0.00
	CHANNELS 6 Xposition Yposition Zposition Zrotation Xrotation Yrotation
	JOINT LeftUpLeg
	{
		OFFSET	 0.126116	-0.065224	 0.014019
		CHANNELS 3 Zrotation Xrotation Yrotation
		JOINT LeftLeg
		{
			OFFSET	 0.000000	 0.569914	 0.000000
			CHANNELS 3 Zrotation Xrotation Yrotation
			JOINT LeftFoot
			{
				OFFSET	 0.000000	 0.544423	 0.000000
				CHANNELS 3 Zrotation Xrotation Yrotation
				JOINT LeftToeBase
				{
					OFFSET	 0.000000	 0.207117	 0.000000
					CHANNELS 3 Zrotation Xrotation Yrotation
					End Site
					{
						OFFSET	 0.000000	 0.207117	 0.000000
					}
				}
			}
		}
	}
	JOINT RightUpLeg
	{
		OFFSET	-0.124023	-0.065224	 0.008373
		CHANNELS 3 Zrotation Xrotation Yrotation
		JOINT RightLeg
		{
			OFFSET	 0.000000	 0.570047	 0.000000
			CHANNELS 3 Zrotation Xrotation Yrotation
			JOINT RightFoot
			{
				OFFSET	 0.000000	 0.544354	 0.000000
				CHANNELS 3 Zrotation Xrotation Yrotation
				JOINT RightToeBase
				{
					OFFSET	 0.000000	 0.207540	 0.000000
					CHANNELS 3 Zrotation Xrotation Yrotation
					End Site
					{
						OFFSET	 0.000000	 0.207540	 0.000000
					}
				}
			}
		}
	}
	JOINT Spine
	{
		OFFSET	 0.000184	 0.117403	 0.007763
		CHANNELS 3 Zrotation Xrotation Yrotation
		JOINT Spine1
		{
			OFFSET	 0.000000	 0.137269	 0.000000
			CHANNELS 3 Zrotation Xrotation Yrotation
			JOINT Spine2
			{
				OFFSET	 0.000000	 0.156879	 0.000000
				CHANNELS 3 Zrotation Xrotation Yrotation
				JOINT LeftShoulder
				{
					OFFSET	 0.080501	 0.160143	 0.002496
					CHANNELS 3 Zrotation Xrotation Yrotation
					JOINT LeftArm
					{
						OFFSET	 0.000000	 0.164363	 0.000000
						CHANNELS 3 Zrotation Xrotation Yrotation
						JOINT LeftForeArm
						{
							OFFSET	 0.000000	 0.364576	 0.000000
							CHANNELS 3 Zrotation Xrotation Yrotation
							JOINT LeftHand
							{
								OFFSET	 0.000000	 0.360812	 0.000000
								CHANNELS 3 Zrotation Xrotation Yrotation
								JOINT LeftHandIndex1
								{
									OFFSET	 0.000000	 0.086006	 0.000000
									CHANNELS 3 Zrotation Xrotation Yrotation
									JOINT LeftHandIndex2
									{
										OFFSET	 0.000000	 0.047237	 0.000000
										CHANNELS 3 Zrotation Xrotation Yrotation
										JOINT LeftHandIndex3
										{
											OFFSET	-0.004284	 0.038165	 0.000551
											CHANNELS 3 Zrotation Xrotation Yrotation
											End Site
											{
												OFFSET	-0.004284	 0.038165	 0.000551
											}
										}
									}
								}
							}
						}
					}
				}
				JOINT Neck
				{
					OFFSET	 0.000000	 0.176489	 0.000000
					CHANNELS 3 Zrotation Xrotation Yrotation
					JOINT Head
					{
						OFFSET	 0.000000	 0.077941	 0.001747
						CHANNELS 3 Zrotation Xrotation Yrotation
						End Site
						{
							OFFSET	 0.000000	 0.077941	 0.001747
						}
					}
				}
				JOINT RightShoulder
				{
					OFFSET	-0.080363	 0.159706	-0.000306
					CHANNELS 3 Zrotation Xrotation Yrotation
					JOINT RightArm
					{
						OFFSET	 0.000000	 0.164196	 0.000000
						CHANNELS 3 Zrotation Xrotation Yrotation
						JOINT RightForeArm
						{
							OFFSET	 0.000000	 0.365611	 0.000000
							CHANNELS 3 Zrotation Xrotation Yrotation
							JOINT RightHand
							{
								OFFSET	 0.000000	 0.360648	 0.000000
								CHANNELS 3 Zrotation Xrotation Yrotation
								JOINT RightHandIndex1
								{
									OFFSET	 0.000000	 0.069977	 0.000000
									CHANNELS 3 Zrotation Xrotation Yrotation
									JOINT RightHandIndex2
									{
										OFFSET	 0.000000	 0.052305	 0.000000
										CHANNELS 3 Zrotation Xrotation Yrotation
										JOINT RightHandIndex3
										{
											OFFSET	 0.009002	 0.042196	 0.000782
											CHANNELS 3 Zrotation Xrotation Yrotation
											End Site
											{
												OFFSET	 0.009002	 0.042196	 0.000782
											}
										}
									}
								}
							}
						}
					}
				}
			}
		}
	}
}
MOTION
Frames:    4
Frame Time: 0.03333334
 0.864285	 1.201759	-0.141834	 8.559098	-3.627976	-41.809140	-171.934700	 14.474000	-29.116220	 5.500732	-46.114320	 8.710375	 67.012830	 50.645690	-92.216850	 1.397985	 23.660680	-7.474005	 136.116500	 21.284920	 68.632320	-4.638535	-43.177540	-4.735864	-47.854370	 44.005390	 54.152180	-1.893953	 31.969850	 3.560302	-1.818071	 6.407897	 21.043040	-2.281866	 3.684871	 0.636013	 2.577125	 4.802181	 1.301830	-105.288000	-10.256440	 98.917870	 67.208950	 19.545910	-46.911060	 17.762180	 0.003922	 13.459740	-21.245720	-9.105374	 20.411840	-5.301877	 15.170310	-6.654923	-7.153684	 8.590942	 2.109187	 4.963066	-4.014628	-0.346955	 14.886920	-8.032042	-8.139250	 1.913332	-2.677850	-45.877290	 88.250800	-3.402857	-91.129330	-21.893450	-9.480344	 85.261130	-17.525280	-1.852912	-6.276757	 8.777911	-18.253950	 7.518860	-2.907182	 16.314580	-3.176302	 14.380920	 23.579010	-6.954816	-8.239867	-2.131385	 0.447455
 0.904098	 1.223789	-0.132586	 6.786849	-3.578502	-39.799150	-173.534100	 13.050510	-27.400290	 4.832745	-42.419590	 7.204957	 64.984430	 49.911210	-87.339640	 1.398008	 23.660660	-7.474018	 144.524500	 23.934210	 55.829820	-4.504698	-42.343410	-4.377191	-46.404170	 46.060220	 54.732070	-1.895396	 31.151290	 3.756427	-1.291732	 6.166458	 14.418640	-3.002070	 2.235846	 0.003728	 2.758047	 4.786369	-0.172060	-107.527400	-14.922970	 100.215000	 68.396070	 16.879840	-46.332490	 20.333530	 0.055813	 15.896300	-21.113690	-16.453290	 18.136470	-6.108487	 15.597310	-6.325356	-7.188862	 8.714517	 2.132283	 4.963066	-4.014628	-0.346955	 13.527720	-8.023984	-10.219120	 2.599010	-1.126718	-45.517160	 89.157710	-1.057893	-91.530390	-19.569340	-9.310311	 78.408130	-20.128360	-1.940840	-9.460894	 17.821420	-25.155700	 14.153820	-2.905844	 16.225380	-3.330641	 14.390920	 23.838460	-7.028881	-8.239867	-2.131385	 0.447455
 0.934147	 1.242856	-0.124071	 4.573112	-3.899831	-39.296330	-174.165000	 9.892262	-26.653010	 4.159606	-38.192800	 5.648605	 61.947560	 49.452980	-82.430530	 1.398021	 23.660640	-7.474025	 150.889000	 22.546480	 47.536290	-3.755576	-37.235030	-3.290614	-42.159310	 45.292930	 51.133000	-1.672398	 30.051820	 3.638914	-0.881064	 5.744017	 7.279243	-2.340719	 1.842181	-0.459421	 1.522710	 3.682136	-0.941594	-108.820000	-18.977700	 101.358500	 69.945330	 14.979550	-47.860610	 22.703020	 0.092597	 18.109880	-23.324810	-25.487070	 16.500600	-6.698711	 15.568430	-6.108814	-7.225159	 8.846403	 2.157643	 4.963066	-4.014628	-0.346955	 11.704650	-8.614739	-11.619930	 2.101218	 0.560226	-44.667270	 90.631470	 0.786135	-91.952620	-18.578770	-9.021650	 72.631640	-22.519450	-2.129271	-11.897440	 22.682850	-27.500720	 18.933230	-2.904334	 16.135140	-3.486814	 14.401430	 24.100890	-7.103968	-8.239867	-2.131385	 0.447455
 0.961171	 1.262184	-0.115615	 2.332051	-4.229143	-38.804810	-174.683800	 6.166219	-25.917470	 3.440433	-33.059700	 3.910942	 58.312970	 48.848800	-76.798050	 1.398034	 23.660640	-7.474034	 156.840700	 19.366630	 39.297110	-2.839527	-29.890130	-2.020963	-36.465030	 43.426850	 46.226200	-1.451369	 28.936600	 3.526046	-0.533612	 5.316236	-0.370746	-1.432055	 1.281642	-1.082810	 0.160771	 2.646924	-1.739287	-110.077600	-23.113650	 102.448700	 71.812260	 13.231270	-49.530070	 24.831430	 0.122585	 20.103040	-27.386550	-34.418320	 13.791740	-7.296981	 15.536950	-5.889603	-7.262036	 8.980115	 2.183453	 4.963066	-4.014628	-0.346955	 9.838736	-9.168235	-13.061310	 1.553078	 2.258081	-43.760010	 92.141210	 2.644274	-92.429510	-17.890480	-8.687473	 66.718830	-24.670820	-2.338502	-13.967090	 27.981410	-29.483130	 24.178900	-2.903064	 16.043620	-3.645096	 14.412490	 24.366990	-7.180315	-8.239867	-2.131385	 0.447455
